<svg xmlns="http://www.w3.org/2000/svg" width="76.428" height="76.428" viewBox="0 0 76.428 76.428"><g transform="translate(2.5 2.5)"><path d="M38.714.5A38.223,38.223,0,0,1,53.589,73.924,38.223,38.223,0,0,1,23.839,3.5,37.977,37.977,0,0,1,38.714.5Zm0,71.428A33.214,33.214,0,1,0,5.5,38.714,33.252,33.252,0,0,0,38.714,71.928Z" transform="translate(-3 -3)"/><path d="M32.284,40.072a2.489,2.489,0,0,1-1.116-.264L16.882,32.665A2.5,2.5,0,0,1,15.5,30.428V9a2.5,2.5,0,1,1,5,0V28.883l12.9,6.452a2.5,2.5,0,0,1-1.12,4.737Z" transform="translate(17.714 5.286)"/></g></svg>