<svg xmlns="http://www.w3.org/2000/svg" width="58" height="56.5" viewBox="0 0 58 56.5"><g transform="translate(-764.5 -297.5)"><g transform="translate(766.973 299.664)"><path d="M4-2.5H49A6.507,6.507,0,0,1,55.5,4V34A6.507,6.507,0,0,1,49,40.5H4A6.507,6.507,0,0,1-2.5,34V4A6.507,6.507,0,0,1,4-2.5Zm45,38A1.5,1.5,0,0,0,50.5,34V4A1.5,1.5,0,0,0,49,2.5H4A1.5,1.5,0,0,0,2.5,4V34A1.5,1.5,0,0,0,4,35.5Z" transform="translate(0.027 0.336)"/><path transform="translate(27.102 30.445)"/></g><path d="M2.5,13h-5V0h5Z" transform="translate(793.5 339.5)"/><path d="M21.5,2.5H0A2.5,2.5,0,0,1-2.5,0,2.5,2.5,0,0,1,0-2.5H21.5A2.5,2.5,0,0,1,24,0,2.5,2.5,0,0,1,21.5,2.5Z" transform="translate(782.75 351.5)"/></g></svg>