<svg xmlns="http://www.w3.org/2000/svg" viewBox="0 0 192.35 419.847">
    <g transform="translate(-562.65 -525)">
        <path d="M0,0C15.967,4.971,52.013,21.383,68.455,47.266S124.985,66.181,151,66.476s31.824,3.943,47.073,13.649,154.2,14.66,221.775,15.924l-119.72,10.84c-21.943,2.907-69.51,8.621-84.235,8.222s-24.043,3.322-26.862,5.232c-20.163,11.96-52.177,9.8-65.663,7.226-9.783-2.575-34.954-1.1-57.373,25.414S12.657,190.274,0,192.35Z" transform="translate(755 525) rotate(90)" fill="#92ebd7" />
        <path d="M0,0C15.967,4.039,52.013,17.376,68.455,38.409s61.88,19.17,82.544,15.61c9.337.411,31.824,3.2,47.073,11.091s154.2,11.913,221.775,12.94l-119.72,8.809c-21.943,2.362-69.51,7.005-84.235,6.681s-24.043,2.7-26.862,4.252c-20.163,9.718-52.177,7.964-65.663,5.872-9.783-2.092-34.954-.891-57.373,20.652S12.657,154.618,0,156.305Z" transform="translate(735.668 525) rotate(90)" fill="#66e2c7" />
        <path d="M0,0C15.967,3.269,52.013,14.061,68.455,31.081S130.336,46.594,151,43.713c9.337.332,31.824,2.593,47.073,8.975s154.2,9.64,221.775,10.471l-119.72,7.128c-21.943,1.911-69.51,5.669-84.235,5.407s-24.043,2.185-26.862,3.441C168.868,87,136.854,85.58,123.368,83.887c-9.783-1.693-34.954-.721-57.373,16.712S12.657,125.121,0,126.486Z" transform="translate(720.922 525) rotate(90)" fill="#38d6ae" />
        <path d="M.983,68.571H-.983V0H.983Z" transform="matrix(0, 1, -1, 0, 688.892, 642.157)" fill="#fff" />
        <path d="M.983,168.921H-.983V0H.983Z" transform="translate(743.57 799.657) rotate(90)" fill="#fff" />
        <text transform="translate(656 583)" font-size="20" font-family="NunitoSans-Bold, Nunito Sans" font-weight="700">
            <tspan x="-18.01" y="0">245</tspan>
        </text>
        <text transform="translate(638 734)" font-size="20" font-family="NunitoSans-Bold, Nunito Sans" font-weight="700">
            <tspan x="0" y="0">126</tspan>
        </text>
        <text transform="translate(644 886)" font-size="20" font-family="NunitoSans-Bold, Nunito Sans" font-weight="700">
            <tspan x="0" y="0">52</tspan>
        </text>
    </g>
</svg>