<svg xmlns="http://www.w3.org/2000/svg" width="49.902" height="49.914" viewBox="0 0 49.902 49.914">
    <path d="M1.669,51.129a1.635,1.635,0,0,0,1.18-.492L8.357,45.13l4.549,4.549a1.656,1.656,0,0,0,1.18.492,1.635,1.635,0,0,0,1.18-.492,1.669,1.669,0,0,0,0-2.36l-4.549-4.549,6.147-6.147a20.782,20.782,0,1,0-2.36-2.36L8.357,40.409,3.808,35.86a1.656,1.656,0,0,0-1.18-.492,1.635,1.635,0,0,0-1.18.492,1.669,1.669,0,0,0,0,2.36L6,42.769.489,48.277a1.672,1.672,0,0,0,1.18,2.852ZM18.007,8.446A17.442,17.442,0,1,1,42.68,33.107,17.442,17.442,0,0,1,18.007,8.446Z" transform="translate(0 36.151) rotate(-45)" />
</svg>