<svg xmlns="http://www.w3.org/2000/svg" width="22" height="22" viewBox="0 0 22 22"><g transform="translate(-386 1)"><path d="M10-1A11,11,0,0,1,21,10,11,11,0,0,1,10,21,11,11,0,0,1-1,10,11,11,0,0,1,10-1Zm0,20a9,9,0,1,0-9-9A9.01,9.01,0,0,0,10,19Z" transform="translate(407 20) rotate(180)"/><path d="M0,5A1,1,0,0,1-1,4V0A1,1,0,0,1,0-1,1,1,0,0,1,1,0V4A1,1,0,0,1,0,5Z" transform="translate(397 14) rotate(180)"/><path d="M.01,1H0A1,1,0,0,1-1,0,1,1,0,0,1,0-1H.01a1,1,0,0,1,1,1A1,1,0,0,1,.01,1Z" transform="translate(397 6) rotate(180)"/></g></svg>