<svg xmlns="http://www.w3.org/2000/svg" width="1391" height="47.668" viewBox="0 0 1391 47.668"><g transform="translate(-45 -101.916)"><g transform="translate(45 101.916)"><g transform="translate(0 -17.916)"><text transform="translate(20 38.5)" font-size="14" font-family="NunitoSans-Bold, Nunito Sans" font-weight="700"><tspan x="0" y="0">TIME RANGE</tspan></text><g transform="translate(290.916 17.916)"><path d="M29.167,14.583A14.583,14.583,0,1,1,14.583,0,14.583,14.583,0,0,1,29.167,14.583Z" fill="#38d6ae"/><path d="M0,0V11.667" transform="translate(14.584 8.75)" fill="none" stroke="#fff" stroke-linecap="round" stroke-linejoin="round" stroke-width="2.917"/><path d="M0,0H11.667" transform="translate(8.75 14.584)" fill="none" stroke="#fff" stroke-linecap="round" stroke-linejoin="round" stroke-width="2.917"/></g></g><path d="M0,0H335" transform="translate(0 47.084)" fill="none" stroke="#000" stroke-width="1"/></g><g transform="translate(397 102)"><g transform="translate(0 -17.916)"><text transform="translate(20 38.5)" font-size="14" font-family="NunitoSans-Bold, Nunito Sans" font-weight="700"><tspan x="0" y="0">REGION</tspan></text><g transform="translate(290.916 17.916)"><path d="M29.167,14.583A14.583,14.583,0,1,1,14.583,0,14.583,14.583,0,0,1,29.167,14.583Z" fill="#38d6ae"/><path d="M0,0V11.667" transform="translate(14.584 8.75)" fill="none" stroke="#fff" stroke-linecap="round" stroke-linejoin="round" stroke-width="2.917"/><path d="M0,0H11.667" transform="translate(8.75 14.584)" fill="none" stroke="#fff" stroke-linecap="round" stroke-linejoin="round" stroke-width="2.917"/></g></g><path d="M0,0H335" transform="translate(0 47.084)" fill="none" stroke="#000" stroke-width="1"/></g><g transform="translate(749 102)"><g transform="translate(0 -17.916)"><text transform="translate(20 38.5)" font-size="14" font-family="NunitoSans-Bold, Nunito Sans" font-weight="700"><tspan x="0" y="0">SEGMENT</tspan></text><g transform="translate(290.916 17.916)"><path d="M29.167,14.583A14.583,14.583,0,1,1,14.583,0,14.583,14.583,0,0,1,29.167,14.583Z" fill="#38d6ae"/><path d="M0,0V11.667" transform="translate(14.584 8.75)" fill="none" stroke="#fff" stroke-linecap="round" stroke-linejoin="round" stroke-width="2.917"/><path d="M0,0H11.667" transform="translate(8.75 14.584)" fill="none" stroke="#fff" stroke-linecap="round" stroke-linejoin="round" stroke-width="2.917"/></g></g><path d="M0,0H335" transform="translate(0 47.084)" fill="none" stroke="#000" stroke-width="1"/></g><g transform="translate(1101 102)"><g transform="translate(0 -17.916)"><text transform="translate(20 38.5)" font-size="14" font-family="NunitoSans-Bold, Nunito Sans" font-weight="700"><tspan x="0" y="0">CONDITION</tspan></text><g transform="translate(290.916 17.916)"><path d="M29.167,14.583A14.583,14.583,0,1,1,14.583,0,14.583,14.583,0,0,1,29.167,14.583Z" fill="#38d6ae"/><path d="M0,0V11.667" transform="translate(14.584 8.75)" fill="none" stroke="#fff" stroke-linecap="round" stroke-linejoin="round" stroke-width="2.917"/><path d="M0,0H11.667" transform="translate(8.75 14.584)" fill="none" stroke="#fff" stroke-linecap="round" stroke-linejoin="round" stroke-width="2.917"/></g></g><path d="M0,0H335" transform="translate(0 47.084)" fill="none" stroke="#000" stroke-width="1"/></g></g></svg>